<svg width="24" height="24" viewBox="0 0 24 24" fill="none" xmlns="http://www.w3.org/2000/svg">
<path d="M23.4821 11.3709C23.3832 11.1981 23.2505 11.047 23.0919 10.9266C22.9334 10.8062 22.7522 10.7189 22.5592 10.67C21.7026 10.4585 20.8153 10.3997 19.9383 10.4963C20.1691 9.22009 20.0877 7.90694 19.701 6.66898C19.5871 6.31597 19.3462 6.01783 19.025 5.83238C18.7038 5.64692 18.3251 5.58738 17.9625 5.66529C17.0932 5.85754 16.2636 6.19832 15.5101 6.67264C14.9086 5.40647 14.0138 4.30194 12.9001 3.45063C12.6408 3.25502 12.3248 3.14922 11.9999 3.14924C11.6751 3.14926 11.3591 3.25509 11.0998 3.45072C9.98608 4.30199 9.09138 5.40649 8.48986 6.67264C7.73649 6.19834 6.90694 5.85756 6.03772 5.66529C5.67504 5.58743 5.29638 5.647 4.97514 5.83246C4.6539 6.01793 4.41296 6.31606 4.29904 6.66907C3.91232 7.90696 3.8309 9.22006 4.06173 10.4963C3.18466 10.3996 2.2974 10.4584 1.44077 10.67C1.24806 10.7196 1.06719 10.8071 0.908725 10.9275C0.750264 11.0478 0.617401 11.1985 0.517915 11.3709C0.41843 11.5432 0.35432 11.7336 0.329341 11.931C0.304361 12.1284 0.319012 12.3288 0.372437 12.5205C0.704132 13.7067 1.71941 15.9616 4.7916 17.7354C7.84469 19.498 10.5428 19.5 11.995 19.5C11.9964 19.5 11.9978 19.5002 11.9993 19.5002L12 19.5001L12.0007 19.5002C12.0022 19.5002 12.0036 19.5 12.005 19.5C13.4572 19.5 16.1553 19.498 19.2084 17.7353C22.2806 15.9616 23.2959 13.7067 23.6276 12.5205C23.6817 12.3289 23.6968 12.1284 23.6718 11.9309C23.6468 11.7334 23.5823 11.5429 23.4821 11.3709ZM12.0028 4.65262C12.904 5.32544 15 7.31516 15 11.25C15 15.1848 12.904 17.1746 12.003 17.8473C12.0026 17.8477 12.0021 17.848 12.0016 17.8482C12.0011 17.8484 12.0005 17.8485 12 17.8485C11.9994 17.8485 11.9989 17.8484 11.9984 17.8482C11.9979 17.848 11.9974 17.8477 11.997 17.8473C11.0958 17.1743 9 15.1846 9 11.25C9 7.31516 11.096 5.32544 12.0028 4.65262ZM1.81329 12.123C2.68495 11.9139 3.59147 11.8954 4.47093 12.0688C4.71109 12.7492 5.01458 13.4056 5.3774 14.0294C6.18482 15.4158 7.2425 16.6404 8.49674 17.6409C7.46016 17.3797 6.4654 16.9742 5.5416 16.4364C2.93037 14.9287 2.08722 13.0827 1.81329 12.123ZM18.4584 16.4363C17.5346 16.9742 16.5399 17.3797 15.5033 17.6409C16.7575 16.6403 17.8152 15.4158 18.6226 14.0294C18.9854 13.4056 19.2889 12.7492 19.5291 12.0688C20.4071 11.8968 21.3117 11.913 22.183 12.1165C21.9128 13.0827 21.0696 14.9287 18.4584 16.4363Z" fill="#00227F"/>
</svg>
